ply
format ascii 1.0
comment VCGLIB generated
element vertex 8
property float x
property float y
property float z
property uchar red
property uchar green
property uchar blue
property uchar alpha
property float quality
property float radius
element face 12
property list uchar int vertex_indices
property uchar red
property uchar green
property uchar blue
property uchar alpha
end_header
-0.5 -0.5 -0.5 255 0 0 255 2.076774 1.224745 
0.5 -0.5 -0.5 0 0 255 255 2.374766 1.224745 
-0.5 0.5 -0.5 0 0 255 255 2.374766 1.224745 
0.5 0.5 -0.5 0 0 255 255 2.374766 1.224745 
-0.5 -0.5 0.5 0 0 255 255 2.374766 1.224745 
0.5 -0.5 0.5 0 0 255 255 2.374766 1.224745 
-0.5 0.5 0.5 0 0 255 255 2.374766 1.224745 
0.5 0.5 0.5 255 0 0 255 2.076774 1.224745 
3 2 1 0 255 255 255 255 
3 1 2 3 255 255 255 255 
3 4 2 0 255 255 255 255 
3 2 4 6 255 255 255 255 
3 1 4 0 255 255 255 255 
3 4 1 5 255 255 255 255 
3 6 5 7 255 255 255 255 
3 5 6 4 255 255 255 255 
3 3 6 7 255 255 255 255 
3 6 3 2 255 255 255 255 
3 5 3 7 255 255 255 255 
3 3 5 1 255 255 255 255 
